<?xml version="1.0" encoding="UTF-8"?>
<svg id="Layer_2" data-name="Layer 2" xmlns="http://www.w3.org/2000/svg" viewBox="0 0 417 417">
  <defs>
    <style>
      .cls-1 {
        fill: none;
        stroke: #fff;
        stroke-miterlimit: 10;
      }
    </style>
  </defs>
  <g id="Layer_1-2" data-name="Layer 1">
    <path class="cls-1" d="m241.62,3.13l-37.14,62.97-11.53,19.55-24.35,41.28-11.67,19.79-22.23,37.7-22.93-38.3-12.04-20.09L61.18,61.66c23.75-23.83,53.25-41.93,86.24-52.04,6.59-2.03,13.32-3.73,20.18-5.1,13.22-2.64,26.9-4.02,40.9-4.02,11.27,0,22.34.9,33.12,2.63Z"/>
    <path class="cls-1" d="m223.66,281.98l-14.98,25.97-11.4,19.77-46.52,80.66c-35.56-10.25-67.2-29.74-92.17-55.69-4.85-5.04-9.45-10.33-13.79-15.85-13.52-17.23-24.39-36.65-31.97-57.64l65.46.86,22.96.31,68.21.89,23.42.31,30.78.41Z"/>
    <path class="cls-1" d="m401.18,129.99l-66.34-.87-22.84-.3-70.52-.93-23.41-.3-26.5-.35,13.04-22.12,11.53-19.54L262.19,7.5c34.46,9.18,65.41,26.99,90.38,50.98,5.01,4.8,9.78,9.86,14.28,15.15,14.25,16.71,25.9,35.7,34.33,56.36Z"/>
    <path class="cls-1" d="m416.5,208.5c0,19.39-2.65,38.16-7.62,55.97-1.88,6.77-4.1,13.39-6.64,19.86-8.08,20.64-19.37,39.67-33.25,56.49l-34.36-57.38-12.04-20.1-33.19-55.43-11.72-19.58-24.16-40.34,47.06.62,22.84.3h.01l84.73,1.12c5.43,18.55,8.34,38.17,8.34,58.47Z"/>
    <path class="cls-1" d="m354.96,356.19c-23.88,23.69-53.48,41.62-86.53,51.54-6.62,1.99-13.37,3.66-20.25,4.99-12.84,2.48-26.11,3.78-39.68,3.78-12.79,0-25.32-1.15-37.47-3.37l37.97-65.84,11.4-19.76,26.1-45.25,11.42-19.8,20.08-34.81,21.18,35.36,12.03,20.1,43.75,73.06Z"/>
    <path class="cls-1" d="m157.43,261.16l-44.51-.58-22.96-.31-83.24-1.09c-4.06-16.22-6.22-33.2-6.22-50.68,0-22.23,3.49-43.64,9.95-63.72,2.17-6.77,4.68-13.39,7.51-19.83,7.59-17.3,17.48-33.36,29.27-47.81l29.09,48.58,12.03,20.09,34.82,58.15,11.66,19.47,22.6,37.73Z"/>
  </g>
</svg>